Hellhounds 2009 1080p BRRip H264.mp4

File Size
Format : MPEG-4
Format profile : Base Media
Codec ID : isom
File size : 3.73 GiB
Duration : 1h 23mn
Overall bit rate : 6 392 Kbps

Video
ID : 1
Format : AVC
Format/Info : Advanced Video Codec
Format profile : High@L4.1
Format settings, CABAC : Yes
Format settings, ReFrames : 3 frames
Codec ID : avc1
Codec ID/Info : Advanced Video Coding
Duration : 1h 23mn
Bit rate mode : Variable
Bit rate : 5 750 Kbps
Maximum bit rate : 27.1 Mbps
Width : 1 920 pixels
Height : 1 080 pixels
Display aspect ratio : 16:9
Frame rate mode : Constant
Frame rate : 25.000 fps
Resolution : 24 bits
Colorimetry : 4:2:0
Scan type : Progressive
Bits/(Pixel*Frame) : 0.111
Stream size : 3.35 GiB (90%)

Audio #1
ID : 2
Format : AAC
Format/Info : Advanced Audio Codec
Format version : Version 4
Format profile : LC
Format settings, SBR : No
Codec ID : 40
Duration : 1h 23mn
Bit rate mode : Variable
Bit rate : 192 Kbps
Maximum bit rate : 199 Kbps
Channel(s) : 2 channels
Channel positions : L R
Sampling rate : 48.0 KHz
Resolution : 16 bits
Stream size : 114 MiB (3%)

Audio #2
ID : 3
Format : AAC
Format/Info : Advanced Audio Codec
Format version : Version 4
Format profile : LC
Format settings, SBR : No
Codec ID : 40
Duration : 1h 23mn
Bit rate mode : Variable
Bit rate : 448 Kbps
Maximum bit rate : 458 Kbps
Channel(s) : 6 channels
Channel positions : Front: L C R, Rear: L R, LFE
Sampling rate : 48.0 KHz
Resolution : 16 bits
Stream size : 267 MiB (7%)

English SRT : ----

Language : English


 
http://www.imdb.com/title/tt1305800/

Release Date: 19 July 2009 (USA) 

Genre: Adventure | Fantasy | Horror 

Plot: A Greek warrior must travel to the Underworld and battle killer hellhounds in order to rescue his murdered bride from the clutches of Hades.

Cast: 
Scott Elrod ... Kleitos
Adam Butcher ... Nikandros
Amanda Brooks ... Demetria
James A. Woods ... Theron (as J.A. Woods)
Andrew Howard ... Andronikus
Olivia Nita ... Callia
Marius Chivu ... Cleon
Indra Ové ... The Seer (as Indra Ove)
Ana Popescu ... Farrah
Ben Cross ... King Leander
Oltin Hurezeanu ... Hades
Alain Goulem ... Hades (voice) (as Al Goulem)
Theodor Danetti ... Charon
Arthur Grosser ... Charon (voice)
Geanina Varga ... Harlot



Screenshots:
 
http://www.imagebam.com/image/c1597792921184
 
http://www.imagebam.com/image/af8d6c92921441
 
http://www.imagebam.com/image/b3373292921547
 
http://www.imagebam.com/image/c3827092921630
 
http://www.imagebam.com/image/8adbb792921772
 
http://www.imagebam.com/image/9ec7d592921856
 
http://www.imagebam.com/image/9603da92921934
 
http://www.imagebam.com/image/1dcd2f92921974
 
http://www.imagebam.com/image/72eb0f92922026